<mxfile host="Electron" modified="2023-11-10T03:58:59.843Z" agent="Mozilla/5.0 (Macintosh; Intel Mac OS X 10_15_7) AppleWebKit/537.36 (KHTML, like Gecko) draw.io/21.6.8 Chrome/114.0.5735.289 Electron/25.5.0 Safari/537.36" etag="tNOcIxt2marFOEUfsAm8" version="21.6.8" type="device" pages="9">
  <diagram name="Page-1" id="51To2bOsExx7T98k4ajT">
    <mxGraphModel dx="970" dy="635" grid="1" gridSize="10" guides="1" tooltips="1" connect="1" arrows="1" fold="1" page="1" pageScale="1" pageWidth="850" pageHeight="1100" math="0" shadow="0">
      <root>
        <mxCell id="0" />
        <mxCell id="1" parent="0" />
        <mxCell id="aECGT-uatzv43lPxxF0G-1" value="&lt;font data-font-src=&quot;https://fonts.googleapis.com/css?family=Comic+Neue&quot; face=&quot;Comic Neue&quot;&gt;User Space&lt;/font&gt;" style="text;html=1;align=center;verticalAlign=middle;resizable=0;points=[];autosize=1;strokeColor=none;fillColor=none;" vertex="1" parent="1">
          <mxGeometry x="165" y="170" width="80" height="30" as="geometry" />
        </mxCell>
        <mxCell id="aECGT-uatzv43lPxxF0G-29" value="&lt;font data-font-src=&quot;https://fonts.googleapis.com/css?family=Comic+Neue&quot; face=&quot;Comic Neue&quot;&gt;User Space&lt;/font&gt;" style="text;html=1;align=center;verticalAlign=middle;resizable=0;points=[];autosize=1;strokeColor=none;fillColor=none;" vertex="1" parent="1">
          <mxGeometry x="695" y="170" width="80" height="30" as="geometry" />
        </mxCell>
        <mxCell id="aECGT-uatzv43lPxxF0G-30" value="" style="endArrow=classic;html=1;rounded=0;exitX=0.5;exitY=1;exitDx=0;exitDy=0;entryX=0;entryY=0.25;entryDx=0;entryDy=0;dashed=1;strokeColor=default;edgeStyle=orthogonalEdgeStyle;curved=1;" edge="1" parent="1" source="2yv6irXbSrKUS0lvQYqH-1" target="aECGT-uatzv43lPxxF0G-19">
          <mxGeometry relative="1" as="geometry">
            <mxPoint x="370" y="330" as="sourcePoint" />
            <mxPoint x="470" y="330" as="targetPoint" />
          </mxGeometry>
        </mxCell>
        <mxCell id="aECGT-uatzv43lPxxF0G-31" value="1." style="edgeLabel;resizable=0;html=1;align=center;verticalAlign=top;fontSize=12;" connectable="0" vertex="1" parent="aECGT-uatzv43lPxxF0G-30">
          <mxGeometry relative="1" as="geometry">
            <mxPoint x="25" y="-55" as="offset" />
          </mxGeometry>
        </mxCell>
        <mxCell id="aECGT-uatzv43lPxxF0G-32" value="" style="endArrow=classic;html=1;rounded=0;exitX=0.5;exitY=1;exitDx=0;exitDy=0;dashed=1;strokeColor=default;edgeStyle=orthogonalEdgeStyle;curved=1;" edge="1" parent="1">
          <mxGeometry relative="1" as="geometry">
            <mxPoint x="590" y="400" as="sourcePoint" />
            <mxPoint x="690" y="300" as="targetPoint" />
          </mxGeometry>
        </mxCell>
        <mxCell id="aECGT-uatzv43lPxxF0G-33" value="2." style="edgeLabel;resizable=0;html=1;align=center;verticalAlign=top;fontSize=12;" connectable="0" vertex="1" parent="aECGT-uatzv43lPxxF0G-32">
          <mxGeometry relative="1" as="geometry">
            <mxPoint x="-35" y="-50" as="offset" />
          </mxGeometry>
        </mxCell>
        <mxCell id="aECGT-uatzv43lPxxF0G-34" value="" style="endArrow=classic;html=1;rounded=0;exitX=0.75;exitY=1;exitDx=0;exitDy=0;entryX=1;entryY=0.66;entryDx=0;entryDy=0;dashed=1;strokeColor=default;edgeStyle=orthogonalEdgeStyle;curved=1;entryPerimeter=0;" edge="1" parent="1" source="aECGT-uatzv43lPxxF0G-26" target="aECGT-uatzv43lPxxF0G-19">
          <mxGeometry relative="1" as="geometry">
            <mxPoint x="724.5" y="340" as="sourcePoint" />
            <mxPoint x="859.5" y="445" as="targetPoint" />
          </mxGeometry>
        </mxCell>
        <mxCell id="aECGT-uatzv43lPxxF0G-35" value="3." style="edgeLabel;resizable=0;html=1;align=center;verticalAlign=top;fontSize=12;" connectable="0" vertex="1" parent="aECGT-uatzv43lPxxF0G-34">
          <mxGeometry relative="1" as="geometry">
            <mxPoint x="25" y="-55" as="offset" />
          </mxGeometry>
        </mxCell>
        <mxCell id="aECGT-uatzv43lPxxF0G-36" value="" style="endArrow=classic;html=1;rounded=0;exitX=-0.008;exitY=0.62;exitDx=0;exitDy=0;entryX=0.204;entryY=0.995;entryDx=0;entryDy=0;dashed=1;strokeColor=default;edgeStyle=orthogonalEdgeStyle;curved=1;entryPerimeter=0;exitPerimeter=0;" edge="1" parent="1" source="aECGT-uatzv43lPxxF0G-19" target="2yv6irXbSrKUS0lvQYqH-1">
          <mxGeometry relative="1" as="geometry">
            <mxPoint x="330" y="440" as="sourcePoint" />
            <mxPoint x="122" y="586" as="targetPoint" />
          </mxGeometry>
        </mxCell>
        <mxCell id="aECGT-uatzv43lPxxF0G-37" value="4." style="edgeLabel;resizable=0;html=1;align=center;verticalAlign=top;fontSize=12;" connectable="0" vertex="1" parent="aECGT-uatzv43lPxxF0G-36">
          <mxGeometry relative="1" as="geometry">
            <mxPoint x="25" y="-55" as="offset" />
          </mxGeometry>
        </mxCell>
        <mxCell id="2yv6irXbSrKUS0lvQYqH-1" value="" style="rounded=1;whiteSpace=wrap;html=1;fillColor=#ffe6cc;strokeColor=#d79b00;" parent="1" vertex="1">
          <mxGeometry x="80" y="200" width="250" height="100" as="geometry" />
        </mxCell>
        <mxCell id="aECGT-uatzv43lPxxF0G-2" value="&lt;font data-font-src=&quot;https://fonts.googleapis.com/css?family=Comic+Neue&quot; face=&quot;Comic Neue&quot;&gt;User execute standard filesystem call&lt;/font&gt;" style="text;html=1;align=center;verticalAlign=middle;resizable=0;points=[];autosize=1;strokeColor=none;fillColor=none;" vertex="1" parent="1">
          <mxGeometry x="100" y="210" width="210" height="30" as="geometry" />
        </mxCell>
        <mxCell id="aECGT-uatzv43lPxxF0G-3" value="&lt;font data-font-src=&quot;https://fonts.googleapis.com/css?family=Comic+Neue&quot; face=&quot;Comic Neue&quot;&gt;open(), mkdir(), rmdir() etc.&lt;/font&gt;" style="text;html=1;align=center;verticalAlign=middle;resizable=0;points=[];autosize=1;strokeColor=none;fillColor=none;" vertex="1" parent="1">
          <mxGeometry x="125" y="245" width="160" height="30" as="geometry" />
        </mxCell>
        <mxCell id="aECGT-uatzv43lPxxF0G-25" value="" style="group" vertex="1" connectable="0" parent="1">
          <mxGeometry x="610" y="200" width="250" height="100" as="geometry" />
        </mxCell>
        <mxCell id="aECGT-uatzv43lPxxF0G-26" value="" style="rounded=1;whiteSpace=wrap;html=1;fillColor=#fff2cc;strokeColor=#d6b656;" vertex="1" parent="aECGT-uatzv43lPxxF0G-25">
          <mxGeometry width="250" height="100" as="geometry" />
        </mxCell>
        <mxCell id="aECGT-uatzv43lPxxF0G-27" value="&lt;font data-font-src=&quot;https://fonts.googleapis.com/css?family=Comic+Neue&quot; face=&quot;Comic Neue&quot;&gt;User implemented filesystem using FUSE&lt;/font&gt;" style="text;html=1;align=center;verticalAlign=middle;resizable=0;points=[];autosize=1;strokeColor=none;fillColor=none;" vertex="1" parent="aECGT-uatzv43lPxxF0G-25">
          <mxGeometry x="10" y="10" width="230" height="30" as="geometry" />
        </mxCell>
        <mxCell id="aECGT-uatzv43lPxxF0G-28" value="&lt;font data-font-src=&quot;https://fonts.googleapis.com/css?family=Comic+Neue&quot; face=&quot;Comic Neue&quot;&gt;open(), mkdir(), rmdir() etc.&lt;/font&gt;" style="text;html=1;align=center;verticalAlign=middle;resizable=0;points=[];autosize=1;strokeColor=none;fillColor=none;" vertex="1" parent="aECGT-uatzv43lPxxF0G-25">
          <mxGeometry x="45" y="45" width="160" height="30" as="geometry" />
        </mxCell>
        <mxCell id="aECGT-uatzv43lPxxF0G-8" value="&lt;font data-font-src=&quot;https://fonts.googleapis.com/css?family=Comic+Neue&quot; face=&quot;Comic Neue&quot;&gt;Kernel Space&lt;/font&gt;" style="text;html=1;align=center;verticalAlign=middle;resizable=0;points=[];autosize=1;strokeColor=none;fillColor=none;" vertex="1" parent="1">
          <mxGeometry x="420" y="350" width="90" height="30" as="geometry" />
        </mxCell>
        <mxCell id="aECGT-uatzv43lPxxF0G-19" value="" style="rounded=1;whiteSpace=wrap;html=1;fillColor=#dae8fc;strokeColor=#6c8ebf;" vertex="1" parent="1">
          <mxGeometry x="340" y="380" width="250" height="100" as="geometry" />
        </mxCell>
        <mxCell id="aECGT-uatzv43lPxxF0G-20" value="&lt;font data-font-src=&quot;https://fonts.googleapis.com/css?family=Comic+Neue&quot; face=&quot;Comic Neue&quot;&gt;Kernel&lt;/font&gt;" style="text;html=1;align=center;verticalAlign=middle;resizable=0;points=[];autosize=1;strokeColor=none;fillColor=none;" vertex="1" parent="1">
          <mxGeometry x="435" y="390" width="60" height="30" as="geometry" />
        </mxCell>
        <mxCell id="aECGT-uatzv43lPxxF0G-21" value="&lt;font data-font-src=&quot;https://fonts.googleapis.com/css?family=Comic+Neue&quot; face=&quot;Comic Neue&quot;&gt;FUSE&lt;/font&gt;" style="text;html=1;align=center;verticalAlign=middle;resizable=0;points=[];autosize=1;strokeColor=none;fillColor=none;" vertex="1" parent="1">
          <mxGeometry x="440" y="425" width="50" height="30" as="geometry" />
        </mxCell>
      </root>
    </mxGraphModel>
  </diagram>
  <diagram id="ZytRxckZRtNHFE42AuOc" name="Page-2">
    <mxGraphModel dx="970" dy="635" grid="1" gridSize="10" guides="1" tooltips="1" connect="1" arrows="1" fold="1" page="1" pageScale="1" pageWidth="850" pageHeight="1100" math="0" shadow="0">
      <root>
        <mxCell id="0" />
        <mxCell id="1" parent="0" />
        <mxCell id="3uertewD0bEe09OjvYK9-1" value="&lt;font data-font-src=&quot;https://fonts.googleapis.com/css?family=Comic+Neue&quot; face=&quot;Comic Neue&quot;&gt;User Space: local_folder/&lt;/font&gt;" style="text;html=1;align=center;verticalAlign=middle;resizable=0;points=[];autosize=1;strokeColor=none;fillColor=none;" vertex="1" parent="1">
          <mxGeometry x="130" y="170" width="150" height="30" as="geometry" />
        </mxCell>
        <mxCell id="3uertewD0bEe09OjvYK9-5" value="" style="endArrow=classic;html=1;rounded=0;exitX=0.5;exitY=1;exitDx=0;exitDy=0;dashed=1;strokeColor=default;edgeStyle=orthogonalEdgeStyle;curved=1;" edge="1" parent="1">
          <mxGeometry relative="1" as="geometry">
            <mxPoint x="590" y="400" as="sourcePoint" />
            <mxPoint x="690" y="300" as="targetPoint" />
          </mxGeometry>
        </mxCell>
        <mxCell id="3uertewD0bEe09OjvYK9-6" value="5." style="edgeLabel;resizable=0;html=1;align=center;verticalAlign=top;fontSize=12;" connectable="0" vertex="1" parent="3uertewD0bEe09OjvYK9-5">
          <mxGeometry relative="1" as="geometry">
            <mxPoint x="-35" y="-50" as="offset" />
          </mxGeometry>
        </mxCell>
        <mxCell id="3uertewD0bEe09OjvYK9-7" value="" style="endArrow=classic;html=1;rounded=0;exitX=0.75;exitY=1;exitDx=0;exitDy=0;entryX=1;entryY=0.66;entryDx=0;entryDy=0;dashed=1;strokeColor=default;edgeStyle=orthogonalEdgeStyle;curved=1;entryPerimeter=0;" edge="1" parent="1" source="3uertewD0bEe09OjvYK9-15" target="3uertewD0bEe09OjvYK9-19">
          <mxGeometry relative="1" as="geometry">
            <mxPoint x="724.5" y="340" as="sourcePoint" />
            <mxPoint x="859.5" y="445" as="targetPoint" />
          </mxGeometry>
        </mxCell>
        <mxCell id="3uertewD0bEe09OjvYK9-8" value="1." style="edgeLabel;resizable=0;html=1;align=center;verticalAlign=top;fontSize=12;" connectable="0" vertex="1" parent="3uertewD0bEe09OjvYK9-7">
          <mxGeometry relative="1" as="geometry">
            <mxPoint x="25" y="-55" as="offset" />
          </mxGeometry>
        </mxCell>
        <mxCell id="3uertewD0bEe09OjvYK9-11" value="" style="rounded=1;whiteSpace=wrap;html=1;fillColor=#f8cecc;strokeColor=#b85450;" vertex="1" parent="1">
          <mxGeometry x="80" y="200" width="250" height="100" as="geometry" />
        </mxCell>
        <mxCell id="3uertewD0bEe09OjvYK9-12" value="&lt;font data-font-src=&quot;https://fonts.googleapis.com/css?family=Comic+Neue&quot; face=&quot;Comic Neue&quot;&gt;User execute standard filesystem call&lt;/font&gt;" style="text;html=1;align=center;verticalAlign=middle;resizable=0;points=[];autosize=1;strokeColor=none;fillColor=none;" vertex="1" parent="1">
          <mxGeometry x="100" y="210" width="210" height="30" as="geometry" />
        </mxCell>
        <mxCell id="3uertewD0bEe09OjvYK9-13" value="&lt;font data-font-src=&quot;https://fonts.googleapis.com/css?family=Comic+Neue&quot; face=&quot;Comic Neue&quot;&gt;open(), mkdir(), rmdir() etc.&lt;/font&gt;" style="text;html=1;align=center;verticalAlign=middle;resizable=0;points=[];autosize=1;strokeColor=none;fillColor=none;" vertex="1" parent="1">
          <mxGeometry x="125" y="245" width="160" height="30" as="geometry" />
        </mxCell>
        <mxCell id="3uertewD0bEe09OjvYK9-18" value="&lt;font data-font-src=&quot;https://fonts.googleapis.com/css?family=Comic+Neue&quot; face=&quot;Comic Neue&quot;&gt;Kernel Space&lt;/font&gt;" style="text;html=1;align=center;verticalAlign=middle;resizable=0;points=[];autosize=1;strokeColor=none;fillColor=none;" vertex="1" parent="1">
          <mxGeometry x="420" y="350" width="90" height="30" as="geometry" />
        </mxCell>
        <mxCell id="3uertewD0bEe09OjvYK9-19" value="" style="rounded=1;whiteSpace=wrap;html=1;fillColor=#dae8fc;strokeColor=#6c8ebf;" vertex="1" parent="1">
          <mxGeometry x="340" y="380" width="250" height="100" as="geometry" />
        </mxCell>
        <mxCell id="3uertewD0bEe09OjvYK9-20" value="&lt;font data-font-src=&quot;https://fonts.googleapis.com/css?family=Comic+Neue&quot; face=&quot;Comic Neue&quot;&gt;Kernel&lt;/font&gt;" style="text;html=1;align=center;verticalAlign=middle;resizable=0;points=[];autosize=1;strokeColor=none;fillColor=none;" vertex="1" parent="1">
          <mxGeometry x="435" y="390" width="60" height="30" as="geometry" />
        </mxCell>
        <mxCell id="3uertewD0bEe09OjvYK9-21" value="&lt;font data-font-src=&quot;https://fonts.googleapis.com/css?family=Comic+Neue&quot; face=&quot;Comic Neue&quot;&gt;FUSE&lt;/font&gt;" style="text;html=1;align=center;verticalAlign=middle;resizable=0;points=[];autosize=1;strokeColor=none;fillColor=none;" vertex="1" parent="1">
          <mxGeometry x="440" y="425" width="50" height="30" as="geometry" />
        </mxCell>
        <mxCell id="3uertewD0bEe09OjvYK9-25" value="" style="group" vertex="1" connectable="0" parent="1">
          <mxGeometry x="730" y="530" width="220" height="140" as="geometry" />
        </mxCell>
        <mxCell id="3uertewD0bEe09OjvYK9-22" value="" style="ellipse;shape=cloud;whiteSpace=wrap;html=1;" vertex="1" parent="3uertewD0bEe09OjvYK9-25">
          <mxGeometry width="220" height="120" as="geometry" />
        </mxCell>
        <mxCell id="3uertewD0bEe09OjvYK9-23" value="" style="shape=image;verticalLabelPosition=bottom;labelBackgroundColor=default;verticalAlign=top;aspect=fixed;imageAspect=0;image=https://1000logos.net/wp-content/uploads/2020/05/Logo-Google-Cloud.png;clipPath=inset(34.04% 0.67% 35.64% 1.33%);" vertex="1" parent="3uertewD0bEe09OjvYK9-25">
          <mxGeometry x="65.78999999999996" y="120" width="103.16" height="20" as="geometry" />
        </mxCell>
        <mxCell id="3uertewD0bEe09OjvYK9-24" value="&lt;font data-font-src=&quot;https://fonts.googleapis.com/css?family=Comic+Neue&quot; face=&quot;Comic Neue&quot;&gt;eccfsbucket/&lt;/font&gt;" style="text;html=1;align=center;verticalAlign=middle;resizable=0;points=[];autosize=1;strokeColor=none;fillColor=none;" vertex="1" parent="3uertewD0bEe09OjvYK9-25">
          <mxGeometry x="72.36999999999989" y="45" width="90" height="30" as="geometry" />
        </mxCell>
        <mxCell id="m0JeUS7O144OWb3maoBQ-3" value="" style="group" vertex="1" connectable="0" parent="1">
          <mxGeometry x="610" y="170" width="250" height="130" as="geometry" />
        </mxCell>
        <mxCell id="3uertewD0bEe09OjvYK9-2" value="&lt;font data-font-src=&quot;https://fonts.googleapis.com/css?family=Comic+Neue&quot; face=&quot;Comic Neue&quot;&gt;User Space: mount_folder/&lt;br&gt;&lt;/font&gt;" style="text;html=1;align=center;verticalAlign=middle;resizable=0;points=[];autosize=1;strokeColor=none;fillColor=none;" vertex="1" parent="m0JeUS7O144OWb3maoBQ-3">
          <mxGeometry x="45" width="160" height="30" as="geometry" />
        </mxCell>
        <mxCell id="m0JeUS7O144OWb3maoBQ-2" value="" style="group" vertex="1" connectable="0" parent="m0JeUS7O144OWb3maoBQ-3">
          <mxGeometry y="30" width="250" height="100" as="geometry" />
        </mxCell>
        <mxCell id="3uertewD0bEe09OjvYK9-15" value="" style="rounded=1;whiteSpace=wrap;html=1;fillColor=#e1d5e7;strokeColor=#9673a6;" vertex="1" parent="m0JeUS7O144OWb3maoBQ-2">
          <mxGeometry width="250" height="100" as="geometry" />
        </mxCell>
        <mxCell id="3uertewD0bEe09OjvYK9-16" value="&lt;font data-font-src=&quot;https://fonts.googleapis.com/css?family=Comic+Neue&quot; face=&quot;Comic Neue&quot;&gt;User implemented filesystem using FUSE&lt;/font&gt;" style="text;html=1;align=center;verticalAlign=middle;resizable=0;points=[];autosize=1;strokeColor=none;fillColor=none;" vertex="1" parent="m0JeUS7O144OWb3maoBQ-2">
          <mxGeometry x="10" y="10" width="230" height="30" as="geometry" />
        </mxCell>
        <mxCell id="3uertewD0bEe09OjvYK9-17" value="&lt;font data-font-src=&quot;https://fonts.googleapis.com/css?family=Comic+Neue&quot; face=&quot;Comic Neue&quot;&gt;open(), mkdir(), rmdir() etc.&lt;/font&gt;" style="text;html=1;align=center;verticalAlign=middle;resizable=0;points=[];autosize=1;strokeColor=none;fillColor=none;" vertex="1" parent="m0JeUS7O144OWb3maoBQ-2">
          <mxGeometry x="45" y="45" width="160" height="30" as="geometry" />
        </mxCell>
        <mxCell id="m0JeUS7O144OWb3maoBQ-10" value="" style="group" vertex="1" connectable="0" parent="1">
          <mxGeometry x="340" y="550" width="250" height="100" as="geometry" />
        </mxCell>
        <mxCell id="m0JeUS7O144OWb3maoBQ-5" value="" style="rounded=1;whiteSpace=wrap;html=1;fillColor=#F9E1F7;strokeColor=#9673a6;" vertex="1" parent="m0JeUS7O144OWb3maoBQ-10">
          <mxGeometry width="250" height="100" as="geometry" />
        </mxCell>
        <mxCell id="m0JeUS7O144OWb3maoBQ-6" value="&lt;font data-font-src=&quot;https://fonts.googleapis.com/css?family=Comic+Neue&quot; face=&quot;Comic Neue&quot;&gt;User implemented filesystem: &lt;br&gt;class GCSFuse&lt;/font&gt;" style="text;html=1;align=center;verticalAlign=middle;resizable=0;points=[];autosize=1;strokeColor=none;fillColor=none;" vertex="1" parent="m0JeUS7O144OWb3maoBQ-10">
          <mxGeometry x="40" y="5" width="170" height="40" as="geometry" />
        </mxCell>
        <mxCell id="m0JeUS7O144OWb3maoBQ-7" value="&lt;font data-font-src=&quot;https://fonts.googleapis.com/css?family=Comic+Neue&quot; face=&quot;Comic Neue&quot;&gt;open(), mkdir(), rmdir() etc.&lt;/font&gt;" style="text;html=1;align=center;verticalAlign=middle;resizable=0;points=[];autosize=1;strokeColor=none;fillColor=none;" vertex="1" parent="m0JeUS7O144OWb3maoBQ-10">
          <mxGeometry x="45" y="45" width="160" height="30" as="geometry" />
        </mxCell>
        <mxCell id="m0JeUS7O144OWb3maoBQ-14" value="" style="group" vertex="1" connectable="0" parent="1">
          <mxGeometry x="540" y="500" as="geometry" />
        </mxCell>
        <mxCell id="m0JeUS7O144OWb3maoBQ-11" value="" style="endArrow=classic;html=1;rounded=0;exitX=0.75;exitY=1;exitDx=0;exitDy=0;entryX=0.75;entryY=0;entryDx=0;entryDy=0;dashed=1;" edge="1" parent="m0JeUS7O144OWb3maoBQ-14" source="3uertewD0bEe09OjvYK9-19" target="m0JeUS7O144OWb3maoBQ-5">
          <mxGeometry width="50" height="50" relative="1" as="geometry">
            <mxPoint x="-30" y="150" as="sourcePoint" />
            <mxPoint x="20" y="100" as="targetPoint" />
          </mxGeometry>
        </mxCell>
        <mxCell id="m0JeUS7O144OWb3maoBQ-13" value="2." style="edgeLabel;resizable=0;html=1;align=center;verticalAlign=top;fontSize=12;" connectable="0" vertex="1" parent="m0JeUS7O144OWb3maoBQ-14">
          <mxGeometry as="geometry" />
        </mxCell>
        <mxCell id="m0JeUS7O144OWb3maoBQ-19" value="" style="group" vertex="1" connectable="0" parent="1">
          <mxGeometry x="435" y="500" as="geometry" />
        </mxCell>
        <mxCell id="m0JeUS7O144OWb3maoBQ-12" value="" style="endArrow=none;html=1;rounded=0;exitX=0.34;exitY=0.99;exitDx=0;exitDy=0;entryX=0.336;entryY=0;entryDx=0;entryDy=0;exitPerimeter=0;entryPerimeter=0;dashed=1;endFill=0;startArrow=classic;startFill=1;" edge="1" parent="m0JeUS7O144OWb3maoBQ-19" source="3uertewD0bEe09OjvYK9-19" target="m0JeUS7O144OWb3maoBQ-5">
          <mxGeometry width="50" height="50" relative="1" as="geometry">
            <mxPoint x="-10" y="-20" as="sourcePoint" />
            <mxPoint x="-10" y="70" as="targetPoint" />
          </mxGeometry>
        </mxCell>
        <mxCell id="m0JeUS7O144OWb3maoBQ-18" value="4." style="edgeLabel;resizable=0;html=1;align=center;verticalAlign=top;fontSize=12;" connectable="0" vertex="1" parent="m0JeUS7O144OWb3maoBQ-19">
          <mxGeometry as="geometry" />
        </mxCell>
        <mxCell id="m0JeUS7O144OWb3maoBQ-23" value="" style="group" vertex="1" connectable="0" parent="1">
          <mxGeometry x="600" y="570" width="140" height="29.5" as="geometry" />
        </mxCell>
        <mxCell id="m0JeUS7O144OWb3maoBQ-21" value="" style="shape=flexArrow;endArrow=classic;startArrow=classic;html=1;rounded=0;" edge="1" parent="m0JeUS7O144OWb3maoBQ-23">
          <mxGeometry width="100" height="100" relative="1" as="geometry">
            <mxPoint y="29.5" as="sourcePoint" />
            <mxPoint x="140" y="29.5" as="targetPoint" />
          </mxGeometry>
        </mxCell>
        <mxCell id="m0JeUS7O144OWb3maoBQ-22" value="3." style="edgeLabel;resizable=0;html=1;align=center;verticalAlign=top;fontSize=12;" connectable="0" vertex="1" parent="m0JeUS7O144OWb3maoBQ-23">
          <mxGeometry x="70" as="geometry" />
        </mxCell>
      </root>
    </mxGraphModel>
  </diagram>
  <diagram id="6v6qKnwTnNhHTmWcTk2U" name="CREATE">
    <mxGraphModel dx="1492" dy="977" grid="1" gridSize="10" guides="1" tooltips="1" connect="1" arrows="1" fold="1" page="1" pageScale="1" pageWidth="850" pageHeight="1100" math="0" shadow="0">
      <root>
        <mxCell id="0" />
        <mxCell id="1" parent="0" />
        <mxCell id="0ZeD68rjonDCV3fHTLp3-10" style="edgeStyle=orthogonalEdgeStyle;rounded=0;orthogonalLoop=1;jettySize=auto;html=1;entryX=0.5;entryY=0;entryDx=0;entryDy=0;dashed=1;exitX=0.5;exitY=0;exitDx=0;exitDy=0;curved=1;fontFamily=Comic Neue;fontSource=https%3A%2F%2Ffonts.googleapis.com%2Fcss%3Ffamily%3DComic%2BNeue;" edge="1" parent="1" source="0ZeD68rjonDCV3fHTLp3-1" target="0ZeD68rjonDCV3fHTLp3-2">
          <mxGeometry relative="1" as="geometry">
            <Array as="points">
              <mxPoint x="170" y="240" />
              <mxPoint x="350" y="240" />
            </Array>
          </mxGeometry>
        </mxCell>
        <mxCell id="0ZeD68rjonDCV3fHTLp3-1" value="&lt;font style=&quot;font-size: 21px;&quot;&gt;getattr()&lt;/font&gt;" style="ellipse;whiteSpace=wrap;html=1;fontFamily=Comic Neue;fontSource=https%3A%2F%2Ffonts.googleapis.com%2Fcss%3Ffamily%3DComic%2BNeue;fillColor=#dae8fc;strokeColor=#6c8ebf;" vertex="1" parent="1">
          <mxGeometry x="110" y="280" width="120" height="80" as="geometry" />
        </mxCell>
        <mxCell id="0ZeD68rjonDCV3fHTLp3-2" value="&lt;font style=&quot;font-size: 21px;&quot;&gt;readdir()&lt;/font&gt;" style="ellipse;whiteSpace=wrap;html=1;fontFamily=Comic Neue;fontSource=https%3A%2F%2Ffonts.googleapis.com%2Fcss%3Ffamily%3DComic%2BNeue;fillColor=#d5e8d4;strokeColor=#82b366;" vertex="1" parent="1">
          <mxGeometry x="290" y="280" width="120" height="80" as="geometry" />
        </mxCell>
        <mxCell id="0ZeD68rjonDCV3fHTLp3-17" style="edgeStyle=orthogonalEdgeStyle;rounded=0;orthogonalLoop=1;jettySize=auto;html=1;entryX=0.5;entryY=0;entryDx=0;entryDy=0;curved=1;dashed=1;fontFamily=Comic Neue;fontSource=https%3A%2F%2Ffonts.googleapis.com%2Fcss%3Ffamily%3DComic%2BNeue;" edge="1" parent="1" source="0ZeD68rjonDCV3fHTLp3-3" target="0ZeD68rjonDCV3fHTLp3-4">
          <mxGeometry relative="1" as="geometry">
            <Array as="points">
              <mxPoint x="530" y="230" />
              <mxPoint x="850" y="230" />
            </Array>
          </mxGeometry>
        </mxCell>
        <mxCell id="0ZeD68rjonDCV3fHTLp3-3" value="&lt;font style=&quot;font-size: 21px;&quot;&gt;create()&lt;/font&gt;" style="ellipse;whiteSpace=wrap;html=1;fontFamily=Comic Neue;fontSource=https%3A%2F%2Ffonts.googleapis.com%2Fcss%3Ffamily%3DComic%2BNeue;fillColor=#fff2cc;strokeColor=#d6b656;" vertex="1" parent="1">
          <mxGeometry x="460" y="280" width="120" height="80" as="geometry" />
        </mxCell>
        <mxCell id="0ZeD68rjonDCV3fHTLp3-19" style="edgeStyle=orthogonalEdgeStyle;rounded=0;orthogonalLoop=1;jettySize=auto;html=1;entryX=0.5;entryY=1;entryDx=0;entryDy=0;curved=1;dashed=1;fontFamily=Comic Neue;fontSource=https%3A%2F%2Ffonts.googleapis.com%2Fcss%3Ffamily%3DComic%2BNeue;" edge="1" parent="1" source="0ZeD68rjonDCV3fHTLp3-4" target="0ZeD68rjonDCV3fHTLp3-5">
          <mxGeometry relative="1" as="geometry">
            <Array as="points">
              <mxPoint x="850" y="400" />
              <mxPoint x="690" y="400" />
            </Array>
          </mxGeometry>
        </mxCell>
        <mxCell id="0ZeD68rjonDCV3fHTLp3-23" style="edgeStyle=orthogonalEdgeStyle;rounded=0;orthogonalLoop=1;jettySize=auto;html=1;entryX=0.5;entryY=0;entryDx=0;entryDy=0;curved=1;dashed=1;" edge="1" parent="1" source="0ZeD68rjonDCV3fHTLp3-4" target="0ZeD68rjonDCV3fHTLp3-6">
          <mxGeometry relative="1" as="geometry">
            <Array as="points">
              <mxPoint x="870" y="250" />
              <mxPoint x="1010" y="250" />
            </Array>
          </mxGeometry>
        </mxCell>
        <mxCell id="0ZeD68rjonDCV3fHTLp3-4" value="&lt;font style=&quot;font-size: 21px;&quot;&gt;flush()&lt;/font&gt;" style="ellipse;whiteSpace=wrap;html=1;fontFamily=Comic Neue;fontSource=https%3A%2F%2Ffonts.googleapis.com%2Fcss%3Ffamily%3DComic%2BNeue;fillColor=#f6d0fb;strokeColor=#6c8ebf;" vertex="1" parent="1">
          <mxGeometry x="790" y="280" width="120" height="80" as="geometry" />
        </mxCell>
        <mxCell id="0ZeD68rjonDCV3fHTLp3-21" style="edgeStyle=orthogonalEdgeStyle;rounded=0;orthogonalLoop=1;jettySize=auto;html=1;entryX=0.729;entryY=0.95;entryDx=0;entryDy=0;entryPerimeter=0;curved=1;dashed=1;fontFamily=Comic Neue;fontSource=https%3A%2F%2Ffonts.googleapis.com%2Fcss%3Ffamily%3DComic%2BNeue;" edge="1" parent="1" source="0ZeD68rjonDCV3fHTLp3-5" target="0ZeD68rjonDCV3fHTLp3-4">
          <mxGeometry relative="1" as="geometry">
            <Array as="points">
              <mxPoint x="640" y="490" />
              <mxPoint x="878" y="490" />
            </Array>
          </mxGeometry>
        </mxCell>
        <mxCell id="0ZeD68rjonDCV3fHTLp3-5" value="&lt;font style=&quot;font-size: 21px;&quot;&gt;utimens()&lt;/font&gt;" style="ellipse;whiteSpace=wrap;html=1;fontFamily=Comic Neue;fontSource=https%3A%2F%2Ffonts.googleapis.com%2Fcss%3Ffamily%3DComic%2BNeue;fillColor=#f8cecc;strokeColor=#b85450;" vertex="1" parent="1">
          <mxGeometry x="630" y="280" width="120" height="80" as="geometry" />
        </mxCell>
        <mxCell id="0ZeD68rjonDCV3fHTLp3-6" value="&lt;font style=&quot;font-size: 21px;&quot;&gt;release()&lt;/font&gt;" style="ellipse;whiteSpace=wrap;html=1;fontFamily=Comic Neue;fontSource=https%3A%2F%2Ffonts.googleapis.com%2Fcss%3Ffamily%3DComic%2BNeue;fillColor=#9999FF;strokeColor=#6c8ebf;" vertex="1" parent="1">
          <mxGeometry x="950" y="280" width="120" height="80" as="geometry" />
        </mxCell>
        <mxCell id="0ZeD68rjonDCV3fHTLp3-7" value="" style="endArrow=classic;html=1;rounded=0;fontFamily=Comic Neue;fontSource=https%3A%2F%2Ffonts.googleapis.com%2Fcss%3Ffamily%3DComic%2BNeue;" edge="1" parent="1">
          <mxGeometry width="50" height="50" relative="1" as="geometry">
            <mxPoint x="38" y="320" as="sourcePoint" />
            <mxPoint x="108" y="320" as="targetPoint" />
          </mxGeometry>
        </mxCell>
        <mxCell id="0ZeD68rjonDCV3fHTLp3-9" value="&lt;span style=&quot;color: rgb(0, 0, 0); font-size: 21px; font-style: normal; font-variant-ligatures: normal; font-variant-caps: normal; font-weight: 400; letter-spacing: normal; orphans: 2; text-align: center; text-indent: 0px; text-transform: none; widows: 2; word-spacing: 0px; -webkit-text-stroke-width: 0px; background-color: rgb(251, 251, 251); text-decoration-thickness: initial; text-decoration-style: initial; text-decoration-color: initial; float: none; display: inline !important;&quot;&gt;START&lt;/span&gt;" style="text;whiteSpace=wrap;html=1;fontFamily=Comic Neue;fontSource=https%3A%2F%2Ffonts.googleapis.com%2Fcss%3Ffamily%3DComic%2BNeue;" vertex="1" parent="1">
          <mxGeometry x="40" y="280" width="60" height="40" as="geometry" />
        </mxCell>
        <mxCell id="0ZeD68rjonDCV3fHTLp3-11" value="1." style="text;html=1;align=center;verticalAlign=middle;resizable=0;points=[];autosize=1;strokeColor=none;fillColor=none;fontFamily=Comic Neue;fontSource=https%3A%2F%2Ffonts.googleapis.com%2Fcss%3Ffamily%3DComic%2BNeue;fontSize=16;" vertex="1" parent="1">
          <mxGeometry x="250" y="210" width="30" height="30" as="geometry" />
        </mxCell>
        <mxCell id="0ZeD68rjonDCV3fHTLp3-13" style="edgeStyle=orthogonalEdgeStyle;rounded=0;orthogonalLoop=1;jettySize=auto;html=1;entryX=0.446;entryY=-0.025;entryDx=0;entryDy=0;dashed=1;curved=1;entryPerimeter=0;exitX=0.663;exitY=-0.012;exitDx=0;exitDy=0;exitPerimeter=0;fontFamily=Comic Neue;fontSource=https%3A%2F%2Ffonts.googleapis.com%2Fcss%3Ffamily%3DComic%2BNeue;" edge="1" parent="1" source="0ZeD68rjonDCV3fHTLp3-2" target="0ZeD68rjonDCV3fHTLp3-3">
          <mxGeometry relative="1" as="geometry">
            <mxPoint x="430" y="400" as="sourcePoint" />
            <mxPoint x="550" y="280" as="targetPoint" />
            <Array as="points">
              <mxPoint x="370" y="240" />
              <mxPoint x="514" y="240" />
            </Array>
          </mxGeometry>
        </mxCell>
        <mxCell id="0ZeD68rjonDCV3fHTLp3-14" value="2." style="text;html=1;align=center;verticalAlign=middle;resizable=0;points=[];autosize=1;strokeColor=none;fillColor=none;fontFamily=Comic Neue;fontSource=https%3A%2F%2Ffonts.googleapis.com%2Fcss%3Ffamily%3DComic%2BNeue;fontSize=16;" vertex="1" parent="1">
          <mxGeometry x="425" y="210" width="30" height="30" as="geometry" />
        </mxCell>
        <mxCell id="0ZeD68rjonDCV3fHTLp3-16" value="3." style="text;html=1;align=center;verticalAlign=middle;resizable=0;points=[];autosize=1;strokeColor=none;fillColor=none;fontFamily=Comic Neue;fontSource=https%3A%2F%2Ffonts.googleapis.com%2Fcss%3Ffamily%3DComic%2BNeue;fontSize=16;" vertex="1" parent="1">
          <mxGeometry x="675" y="200" width="30" height="30" as="geometry" />
        </mxCell>
        <mxCell id="0ZeD68rjonDCV3fHTLp3-20" value="4." style="text;html=1;align=center;verticalAlign=middle;resizable=0;points=[];autosize=1;strokeColor=none;fillColor=none;fontFamily=Comic Neue;fontSource=https%3A%2F%2Ffonts.googleapis.com%2Fcss%3Ffamily%3DComic%2BNeue;fontSize=16;" vertex="1" parent="1">
          <mxGeometry x="760" y="400" width="30" height="30" as="geometry" />
        </mxCell>
        <mxCell id="0ZeD68rjonDCV3fHTLp3-22" value="5." style="text;html=1;align=center;verticalAlign=middle;resizable=0;points=[];autosize=1;strokeColor=none;fillColor=none;fontFamily=Comic Neue;fontSource=https%3A%2F%2Ffonts.googleapis.com%2Fcss%3Ffamily%3DComic%2BNeue;fontSize=16;" vertex="1" parent="1">
          <mxGeometry x="740" y="490" width="30" height="30" as="geometry" />
        </mxCell>
        <mxCell id="0ZeD68rjonDCV3fHTLp3-24" value="6." style="text;html=1;align=center;verticalAlign=middle;resizable=0;points=[];autosize=1;strokeColor=none;fillColor=none;fontFamily=Comic Neue;fontSource=https%3A%2F%2Ffonts.googleapis.com%2Fcss%3Ffamily%3DComic%2BNeue;fontSize=16;" vertex="1" parent="1">
          <mxGeometry x="930" y="220" width="30" height="30" as="geometry" />
        </mxCell>
        <mxCell id="0ZeD68rjonDCV3fHTLp3-25" value="CREATE FS CALL EXECUTION" style="text;html=1;align=center;verticalAlign=middle;resizable=0;points=[];autosize=1;strokeColor=none;fillColor=none;fontFamily=Comic Neue;fontSource=https%3A%2F%2Ffonts.googleapis.com%2Fcss%3Ffamily%3DComic%2BNeue;fontStyle=1;fontSize=22;" vertex="1" parent="1">
          <mxGeometry x="410" y="135" width="310" height="40" as="geometry" />
        </mxCell>
      </root>
    </mxGraphModel>
  </diagram>
  <diagram id="H3KccNX9u-WYXi7pzO6J" name="OPEN">
    <mxGraphModel dx="1141" dy="747" grid="1" gridSize="10" guides="1" tooltips="1" connect="1" arrows="1" fold="1" page="1" pageScale="1" pageWidth="850" pageHeight="1100" math="0" shadow="0">
      <root>
        <mxCell id="0" />
        <mxCell id="1" parent="0" />
        <mxCell id="wS30ypAyck3P8Utk7iCQ-1" style="edgeStyle=orthogonalEdgeStyle;rounded=0;orthogonalLoop=1;jettySize=auto;html=1;entryX=0.5;entryY=0;entryDx=0;entryDy=0;dashed=1;exitX=0.5;exitY=0;exitDx=0;exitDy=0;curved=1;fontFamily=Comic Neue;fontSource=https%3A%2F%2Ffonts.googleapis.com%2Fcss%3Ffamily%3DComic%2BNeue;" edge="1" parent="1" source="wS30ypAyck3P8Utk7iCQ-2" target="wS30ypAyck3P8Utk7iCQ-3">
          <mxGeometry relative="1" as="geometry">
            <Array as="points">
              <mxPoint x="170" y="240" />
              <mxPoint x="350" y="240" />
            </Array>
          </mxGeometry>
        </mxCell>
        <mxCell id="wS30ypAyck3P8Utk7iCQ-2" value="&lt;font style=&quot;font-size: 21px;&quot;&gt;getattr()&lt;/font&gt;" style="ellipse;whiteSpace=wrap;html=1;fontFamily=Comic Neue;fontSource=https%3A%2F%2Ffonts.googleapis.com%2Fcss%3Ffamily%3DComic%2BNeue;fillColor=#dae8fc;strokeColor=#6c8ebf;" vertex="1" parent="1">
          <mxGeometry x="110" y="280" width="120" height="80" as="geometry" />
        </mxCell>
        <mxCell id="wS30ypAyck3P8Utk7iCQ-3" value="&lt;font style=&quot;font-size: 21px;&quot;&gt;readdir()&lt;/font&gt;" style="ellipse;whiteSpace=wrap;html=1;fontFamily=Comic Neue;fontSource=https%3A%2F%2Ffonts.googleapis.com%2Fcss%3Ffamily%3DComic%2BNeue;fillColor=#d5e8d4;strokeColor=#82b366;" vertex="1" parent="1">
          <mxGeometry x="290" y="280" width="120" height="80" as="geometry" />
        </mxCell>
        <mxCell id="wS30ypAyck3P8Utk7iCQ-4" style="edgeStyle=orthogonalEdgeStyle;rounded=0;orthogonalLoop=1;jettySize=auto;html=1;entryX=0.5;entryY=0;entryDx=0;entryDy=0;curved=1;dashed=1;fontFamily=Comic Neue;fontSource=https%3A%2F%2Ffonts.googleapis.com%2Fcss%3Ffamily%3DComic%2BNeue;" edge="1" parent="1" source="wS30ypAyck3P8Utk7iCQ-5" target="wS30ypAyck3P8Utk7iCQ-8">
          <mxGeometry relative="1" as="geometry">
            <Array as="points">
              <mxPoint x="530" y="230" />
              <mxPoint x="710" y="230" />
            </Array>
          </mxGeometry>
        </mxCell>
        <mxCell id="wS30ypAyck3P8Utk7iCQ-5" value="&lt;font style=&quot;font-size: 21px;&quot;&gt;open()&lt;/font&gt;" style="ellipse;whiteSpace=wrap;html=1;fontFamily=Comic Neue;fontSource=https%3A%2F%2Ffonts.googleapis.com%2Fcss%3Ffamily%3DComic%2BNeue;fillColor=#66FFFF;strokeColor=#d6b656;" vertex="1" parent="1">
          <mxGeometry x="460" y="280" width="120" height="80" as="geometry" />
        </mxCell>
        <mxCell id="wS30ypAyck3P8Utk7iCQ-8" value="&lt;font style=&quot;font-size: 21px;&quot;&gt;flush()&lt;/font&gt;" style="ellipse;whiteSpace=wrap;html=1;fontFamily=Comic Neue;fontSource=https%3A%2F%2Ffonts.googleapis.com%2Fcss%3Ffamily%3DComic%2BNeue;fillColor=#f6d0fb;strokeColor=#6c8ebf;" vertex="1" parent="1">
          <mxGeometry x="650" y="280" width="120" height="80" as="geometry" />
        </mxCell>
        <mxCell id="wS30ypAyck3P8Utk7iCQ-12" value="" style="endArrow=classic;html=1;rounded=0;fontFamily=Comic Neue;fontSource=https%3A%2F%2Ffonts.googleapis.com%2Fcss%3Ffamily%3DComic%2BNeue;" edge="1" parent="1">
          <mxGeometry width="50" height="50" relative="1" as="geometry">
            <mxPoint x="38" y="320" as="sourcePoint" />
            <mxPoint x="108" y="320" as="targetPoint" />
          </mxGeometry>
        </mxCell>
        <mxCell id="wS30ypAyck3P8Utk7iCQ-13" value="&lt;span style=&quot;color: rgb(0, 0, 0); font-size: 21px; font-style: normal; font-variant-ligatures: normal; font-variant-caps: normal; font-weight: 400; letter-spacing: normal; orphans: 2; text-align: center; text-indent: 0px; text-transform: none; widows: 2; word-spacing: 0px; -webkit-text-stroke-width: 0px; background-color: rgb(251, 251, 251); text-decoration-thickness: initial; text-decoration-style: initial; text-decoration-color: initial; float: none; display: inline !important;&quot;&gt;START&lt;/span&gt;" style="text;whiteSpace=wrap;html=1;fontFamily=Comic Neue;fontSource=https%3A%2F%2Ffonts.googleapis.com%2Fcss%3Ffamily%3DComic%2BNeue;" vertex="1" parent="1">
          <mxGeometry x="40" y="280" width="60" height="40" as="geometry" />
        </mxCell>
        <mxCell id="wS30ypAyck3P8Utk7iCQ-14" value="1." style="text;html=1;align=center;verticalAlign=middle;resizable=0;points=[];autosize=1;strokeColor=none;fillColor=none;fontFamily=Comic Neue;fontSource=https%3A%2F%2Ffonts.googleapis.com%2Fcss%3Ffamily%3DComic%2BNeue;fontSize=16;" vertex="1" parent="1">
          <mxGeometry x="250" y="210" width="30" height="30" as="geometry" />
        </mxCell>
        <mxCell id="wS30ypAyck3P8Utk7iCQ-15" style="edgeStyle=orthogonalEdgeStyle;rounded=0;orthogonalLoop=1;jettySize=auto;html=1;entryX=0.446;entryY=-0.025;entryDx=0;entryDy=0;dashed=1;curved=1;entryPerimeter=0;exitX=0.663;exitY=-0.012;exitDx=0;exitDy=0;exitPerimeter=0;fontFamily=Comic Neue;fontSource=https%3A%2F%2Ffonts.googleapis.com%2Fcss%3Ffamily%3DComic%2BNeue;" edge="1" parent="1" source="wS30ypAyck3P8Utk7iCQ-3" target="wS30ypAyck3P8Utk7iCQ-5">
          <mxGeometry relative="1" as="geometry">
            <mxPoint x="430" y="400" as="sourcePoint" />
            <mxPoint x="550" y="280" as="targetPoint" />
            <Array as="points">
              <mxPoint x="370" y="240" />
              <mxPoint x="514" y="240" />
            </Array>
          </mxGeometry>
        </mxCell>
        <mxCell id="wS30ypAyck3P8Utk7iCQ-16" value="2." style="text;html=1;align=center;verticalAlign=middle;resizable=0;points=[];autosize=1;strokeColor=none;fillColor=none;fontFamily=Comic Neue;fontSource=https%3A%2F%2Ffonts.googleapis.com%2Fcss%3Ffamily%3DComic%2BNeue;fontSize=16;" vertex="1" parent="1">
          <mxGeometry x="425" y="210" width="30" height="30" as="geometry" />
        </mxCell>
        <mxCell id="wS30ypAyck3P8Utk7iCQ-17" value="3." style="text;html=1;align=center;verticalAlign=middle;resizable=0;points=[];autosize=1;strokeColor=none;fillColor=none;fontFamily=Comic Neue;fontSource=https%3A%2F%2Ffonts.googleapis.com%2Fcss%3Ffamily%3DComic%2BNeue;fontSize=16;" vertex="1" parent="1">
          <mxGeometry x="610" y="200" width="30" height="30" as="geometry" />
        </mxCell>
        <mxCell id="wS30ypAyck3P8Utk7iCQ-21" value="OPEN FS CALL EXECUTION" style="text;html=1;align=center;verticalAlign=middle;resizable=0;points=[];autosize=1;strokeColor=none;fillColor=none;fontFamily=Comic Neue;fontSource=https%3A%2F%2Ffonts.googleapis.com%2Fcss%3Ffamily%3DComic%2BNeue;fontStyle=1;fontSize=22;" vertex="1" parent="1">
          <mxGeometry x="280" y="140" width="290" height="40" as="geometry" />
        </mxCell>
      </root>
    </mxGraphModel>
  </diagram>
  <diagram id="nKQd81gaPrWLfBqeurW6" name="READ">
    <mxGraphModel dx="1386" dy="907" grid="1" gridSize="10" guides="1" tooltips="1" connect="1" arrows="1" fold="1" page="1" pageScale="1" pageWidth="850" pageHeight="1100" math="0" shadow="0">
      <root>
        <mxCell id="0" />
        <mxCell id="1" parent="0" />
        <mxCell id="OoyWlHK1Ks2inlJrkwfj-1" style="edgeStyle=orthogonalEdgeStyle;rounded=0;orthogonalLoop=1;jettySize=auto;html=1;entryX=0.5;entryY=0;entryDx=0;entryDy=0;dashed=1;exitX=0.5;exitY=0;exitDx=0;exitDy=0;curved=1;fontFamily=Comic Neue;fontSource=https%3A%2F%2Ffonts.googleapis.com%2Fcss%3Ffamily%3DComic%2BNeue;" edge="1" parent="1" source="OoyWlHK1Ks2inlJrkwfj-2" target="OoyWlHK1Ks2inlJrkwfj-3">
          <mxGeometry relative="1" as="geometry">
            <Array as="points">
              <mxPoint x="170" y="240" />
              <mxPoint x="350" y="240" />
            </Array>
          </mxGeometry>
        </mxCell>
        <mxCell id="OoyWlHK1Ks2inlJrkwfj-2" value="&lt;font style=&quot;font-size: 21px;&quot;&gt;getattr()&lt;/font&gt;" style="ellipse;whiteSpace=wrap;html=1;fontFamily=Comic Neue;fontSource=https%3A%2F%2Ffonts.googleapis.com%2Fcss%3Ffamily%3DComic%2BNeue;fillColor=#dae8fc;strokeColor=#6c8ebf;" vertex="1" parent="1">
          <mxGeometry x="110" y="280" width="120" height="80" as="geometry" />
        </mxCell>
        <mxCell id="OoyWlHK1Ks2inlJrkwfj-3" value="&lt;font style=&quot;font-size: 21px;&quot;&gt;readdir()&lt;/font&gt;" style="ellipse;whiteSpace=wrap;html=1;fontFamily=Comic Neue;fontSource=https%3A%2F%2Ffonts.googleapis.com%2Fcss%3Ffamily%3DComic%2BNeue;fillColor=#d5e8d4;strokeColor=#82b366;" vertex="1" parent="1">
          <mxGeometry x="290" y="280" width="120" height="80" as="geometry" />
        </mxCell>
        <mxCell id="yr3kH6A5FA1cj7nZjeNN-1" style="edgeStyle=orthogonalEdgeStyle;rounded=0;orthogonalLoop=1;jettySize=auto;html=1;entryX=0.5;entryY=0;entryDx=0;entryDy=0;curved=1;dashed=1;" edge="1" parent="1" source="OoyWlHK1Ks2inlJrkwfj-5" target="BYhZyyhuOFijf8ADfHRS-1">
          <mxGeometry relative="1" as="geometry">
            <Array as="points">
              <mxPoint x="560" y="240" />
              <mxPoint x="700" y="240" />
            </Array>
          </mxGeometry>
        </mxCell>
        <mxCell id="OoyWlHK1Ks2inlJrkwfj-5" value="&lt;font style=&quot;font-size: 21px;&quot;&gt;open()&lt;/font&gt;" style="ellipse;whiteSpace=wrap;html=1;fontFamily=Comic Neue;fontSource=https%3A%2F%2Ffonts.googleapis.com%2Fcss%3Ffamily%3DComic%2BNeue;fillColor=#66FFFF;strokeColor=#d6b656;" vertex="1" parent="1">
          <mxGeometry x="460" y="280" width="120" height="80" as="geometry" />
        </mxCell>
        <mxCell id="OoyWlHK1Ks2inlJrkwfj-6" value="&lt;font style=&quot;font-size: 21px;&quot;&gt;flush()&lt;/font&gt;" style="ellipse;whiteSpace=wrap;html=1;fontFamily=Comic Neue;fontSource=https%3A%2F%2Ffonts.googleapis.com%2Fcss%3Ffamily%3DComic%2BNeue;fillColor=#f6d0fb;strokeColor=#6c8ebf;" vertex="1" parent="1">
          <mxGeometry x="820" y="280" width="120" height="80" as="geometry" />
        </mxCell>
        <mxCell id="OoyWlHK1Ks2inlJrkwfj-7" value="" style="endArrow=classic;html=1;rounded=0;fontFamily=Comic Neue;fontSource=https%3A%2F%2Ffonts.googleapis.com%2Fcss%3Ffamily%3DComic%2BNeue;" edge="1" parent="1">
          <mxGeometry width="50" height="50" relative="1" as="geometry">
            <mxPoint x="38" y="320" as="sourcePoint" />
            <mxPoint x="108" y="320" as="targetPoint" />
          </mxGeometry>
        </mxCell>
        <mxCell id="OoyWlHK1Ks2inlJrkwfj-8" value="&lt;span style=&quot;color: rgb(0, 0, 0); font-size: 21px; font-style: normal; font-variant-ligatures: normal; font-variant-caps: normal; font-weight: 400; letter-spacing: normal; orphans: 2; text-align: center; text-indent: 0px; text-transform: none; widows: 2; word-spacing: 0px; -webkit-text-stroke-width: 0px; background-color: rgb(251, 251, 251); text-decoration-thickness: initial; text-decoration-style: initial; text-decoration-color: initial; float: none; display: inline !important;&quot;&gt;START&lt;/span&gt;" style="text;whiteSpace=wrap;html=1;fontFamily=Comic Neue;fontSource=https%3A%2F%2Ffonts.googleapis.com%2Fcss%3Ffamily%3DComic%2BNeue;" vertex="1" parent="1">
          <mxGeometry x="40" y="280" width="60" height="40" as="geometry" />
        </mxCell>
        <mxCell id="OoyWlHK1Ks2inlJrkwfj-9" value="1." style="text;html=1;align=center;verticalAlign=middle;resizable=0;points=[];autosize=1;strokeColor=none;fillColor=none;fontFamily=Comic Neue;fontSource=https%3A%2F%2Ffonts.googleapis.com%2Fcss%3Ffamily%3DComic%2BNeue;fontSize=16;" vertex="1" parent="1">
          <mxGeometry x="250" y="210" width="30" height="30" as="geometry" />
        </mxCell>
        <mxCell id="OoyWlHK1Ks2inlJrkwfj-10" style="edgeStyle=orthogonalEdgeStyle;rounded=0;orthogonalLoop=1;jettySize=auto;html=1;entryX=0.446;entryY=-0.025;entryDx=0;entryDy=0;dashed=1;curved=1;entryPerimeter=0;exitX=0.663;exitY=-0.012;exitDx=0;exitDy=0;exitPerimeter=0;fontFamily=Comic Neue;fontSource=https%3A%2F%2Ffonts.googleapis.com%2Fcss%3Ffamily%3DComic%2BNeue;" edge="1" parent="1" source="OoyWlHK1Ks2inlJrkwfj-3" target="OoyWlHK1Ks2inlJrkwfj-5">
          <mxGeometry relative="1" as="geometry">
            <mxPoint x="430" y="400" as="sourcePoint" />
            <mxPoint x="550" y="280" as="targetPoint" />
            <Array as="points">
              <mxPoint x="370" y="240" />
              <mxPoint x="514" y="240" />
            </Array>
          </mxGeometry>
        </mxCell>
        <mxCell id="OoyWlHK1Ks2inlJrkwfj-11" value="2." style="text;html=1;align=center;verticalAlign=middle;resizable=0;points=[];autosize=1;strokeColor=none;fillColor=none;fontFamily=Comic Neue;fontSource=https%3A%2F%2Ffonts.googleapis.com%2Fcss%3Ffamily%3DComic%2BNeue;fontSize=16;" vertex="1" parent="1">
          <mxGeometry x="425" y="210" width="30" height="30" as="geometry" />
        </mxCell>
        <mxCell id="OoyWlHK1Ks2inlJrkwfj-12" value="3." style="text;html=1;align=center;verticalAlign=middle;resizable=0;points=[];autosize=1;strokeColor=none;fillColor=none;fontFamily=Comic Neue;fontSource=https%3A%2F%2Ffonts.googleapis.com%2Fcss%3Ffamily%3DComic%2BNeue;fontSize=16;" vertex="1" parent="1">
          <mxGeometry x="610" y="210" width="30" height="30" as="geometry" />
        </mxCell>
        <mxCell id="OoyWlHK1Ks2inlJrkwfj-13" value="READ FS CALL EXECUTION" style="text;html=1;align=center;verticalAlign=middle;resizable=0;points=[];autosize=1;strokeColor=none;fillColor=none;fontFamily=Comic Neue;fontSource=https%3A%2F%2Ffonts.googleapis.com%2Fcss%3Ffamily%3DComic%2BNeue;fontStyle=1;fontSize=22;" vertex="1" parent="1">
          <mxGeometry x="375" y="150" width="290" height="40" as="geometry" />
        </mxCell>
        <mxCell id="yr3kH6A5FA1cj7nZjeNN-3" style="edgeStyle=orthogonalEdgeStyle;rounded=0;orthogonalLoop=1;jettySize=auto;html=1;entryX=0.5;entryY=0;entryDx=0;entryDy=0;dashed=1;curved=1;exitX=0.75;exitY=0.025;exitDx=0;exitDy=0;exitPerimeter=0;" edge="1" parent="1" source="BYhZyyhuOFijf8ADfHRS-1" target="OoyWlHK1Ks2inlJrkwfj-6">
          <mxGeometry relative="1" as="geometry">
            <Array as="points">
              <mxPoint x="730" y="240" />
              <mxPoint x="880" y="240" />
            </Array>
          </mxGeometry>
        </mxCell>
        <mxCell id="BYhZyyhuOFijf8ADfHRS-1" value="&lt;font style=&quot;font-size: 21px;&quot;&gt;read()&lt;/font&gt;" style="ellipse;whiteSpace=wrap;html=1;fontFamily=Comic Neue;fontSource=https%3A%2F%2Ffonts.googleapis.com%2Fcss%3Ffamily%3DComic%2BNeue;fillColor=#de8282;strokeColor=#FF0080;" vertex="1" parent="1">
          <mxGeometry x="640" y="280" width="120" height="80" as="geometry" />
        </mxCell>
        <mxCell id="yr3kH6A5FA1cj7nZjeNN-4" value="4." style="text;html=1;align=center;verticalAlign=middle;resizable=0;points=[];autosize=1;strokeColor=none;fillColor=none;fontFamily=Comic Neue;fontSource=https%3A%2F%2Ffonts.googleapis.com%2Fcss%3Ffamily%3DComic%2BNeue;fontSize=16;" vertex="1" parent="1">
          <mxGeometry x="790" y="210" width="30" height="30" as="geometry" />
        </mxCell>
      </root>
    </mxGraphModel>
  </diagram>
  <diagram id="s2jgk6CVbtM5C_UU2hu3" name="WRITE">
    <mxGraphModel dx="1492" dy="977" grid="1" gridSize="10" guides="1" tooltips="1" connect="1" arrows="1" fold="1" page="1" pageScale="1" pageWidth="850" pageHeight="1100" math="0" shadow="0">
      <root>
        <mxCell id="0" />
        <mxCell id="1" parent="0" />
        <mxCell id="pjmKmr7JDMU3EJoiVQ4d-1" style="edgeStyle=orthogonalEdgeStyle;rounded=0;orthogonalLoop=1;jettySize=auto;html=1;entryX=0.5;entryY=0;entryDx=0;entryDy=0;dashed=1;exitX=0.5;exitY=0;exitDx=0;exitDy=0;curved=1;fontFamily=Comic Neue;fontSource=https%3A%2F%2Ffonts.googleapis.com%2Fcss%3Ffamily%3DComic%2BNeue;" edge="1" parent="1" source="pjmKmr7JDMU3EJoiVQ4d-2" target="pjmKmr7JDMU3EJoiVQ4d-3">
          <mxGeometry relative="1" as="geometry">
            <Array as="points">
              <mxPoint x="170" y="240" />
              <mxPoint x="350" y="240" />
            </Array>
          </mxGeometry>
        </mxCell>
        <mxCell id="pjmKmr7JDMU3EJoiVQ4d-2" value="&lt;font style=&quot;font-size: 21px;&quot;&gt;getattr()&lt;/font&gt;" style="ellipse;whiteSpace=wrap;html=1;fontFamily=Comic Neue;fontSource=https%3A%2F%2Ffonts.googleapis.com%2Fcss%3Ffamily%3DComic%2BNeue;fillColor=#dae8fc;strokeColor=#6c8ebf;" vertex="1" parent="1">
          <mxGeometry x="110" y="280" width="120" height="80" as="geometry" />
        </mxCell>
        <mxCell id="pjmKmr7JDMU3EJoiVQ4d-3" value="&lt;font style=&quot;font-size: 21px;&quot;&gt;readdir()&lt;/font&gt;" style="ellipse;whiteSpace=wrap;html=1;fontFamily=Comic Neue;fontSource=https%3A%2F%2Ffonts.googleapis.com%2Fcss%3Ffamily%3DComic%2BNeue;fillColor=#d5e8d4;strokeColor=#82b366;" vertex="1" parent="1">
          <mxGeometry x="290" y="280" width="120" height="80" as="geometry" />
        </mxCell>
        <mxCell id="pjmKmr7JDMU3EJoiVQ4d-7" style="edgeStyle=orthogonalEdgeStyle;rounded=0;orthogonalLoop=1;jettySize=auto;html=1;entryX=0.5;entryY=0;entryDx=0;entryDy=0;curved=1;dashed=1;" edge="1" parent="1" source="pjmKmr7JDMU3EJoiVQ4d-8" target="pjmKmr7JDMU3EJoiVQ4d-11">
          <mxGeometry relative="1" as="geometry">
            <Array as="points">
              <mxPoint x="1030" y="260" />
              <mxPoint x="1170" y="260" />
            </Array>
          </mxGeometry>
        </mxCell>
        <mxCell id="pjmKmr7JDMU3EJoiVQ4d-8" value="&lt;font style=&quot;font-size: 21px;&quot;&gt;flush()&lt;/font&gt;" style="ellipse;whiteSpace=wrap;html=1;fontFamily=Comic Neue;fontSource=https%3A%2F%2Ffonts.googleapis.com%2Fcss%3Ffamily%3DComic%2BNeue;fillColor=#f6d0fb;strokeColor=#6c8ebf;" vertex="1" parent="1">
          <mxGeometry x="950" y="290" width="120" height="80" as="geometry" />
        </mxCell>
        <mxCell id="pjmKmr7JDMU3EJoiVQ4d-11" value="&lt;font style=&quot;font-size: 21px;&quot;&gt;release()&lt;/font&gt;" style="ellipse;whiteSpace=wrap;html=1;fontFamily=Comic Neue;fontSource=https%3A%2F%2Ffonts.googleapis.com%2Fcss%3Ffamily%3DComic%2BNeue;fillColor=#9999FF;strokeColor=#6c8ebf;" vertex="1" parent="1">
          <mxGeometry x="1110" y="290" width="120" height="80" as="geometry" />
        </mxCell>
        <mxCell id="pjmKmr7JDMU3EJoiVQ4d-12" value="" style="endArrow=classic;html=1;rounded=0;fontFamily=Comic Neue;fontSource=https%3A%2F%2Ffonts.googleapis.com%2Fcss%3Ffamily%3DComic%2BNeue;" edge="1" parent="1">
          <mxGeometry width="50" height="50" relative="1" as="geometry">
            <mxPoint x="38" y="320" as="sourcePoint" />
            <mxPoint x="108" y="320" as="targetPoint" />
          </mxGeometry>
        </mxCell>
        <mxCell id="pjmKmr7JDMU3EJoiVQ4d-13" value="&lt;span style=&quot;color: rgb(0, 0, 0); font-size: 21px; font-style: normal; font-variant-ligatures: normal; font-variant-caps: normal; font-weight: 400; letter-spacing: normal; orphans: 2; text-align: center; text-indent: 0px; text-transform: none; widows: 2; word-spacing: 0px; -webkit-text-stroke-width: 0px; background-color: rgb(251, 251, 251); text-decoration-thickness: initial; text-decoration-style: initial; text-decoration-color: initial; float: none; display: inline !important;&quot;&gt;START&lt;/span&gt;" style="text;whiteSpace=wrap;html=1;fontFamily=Comic Neue;fontSource=https%3A%2F%2Ffonts.googleapis.com%2Fcss%3Ffamily%3DComic%2BNeue;" vertex="1" parent="1">
          <mxGeometry x="40" y="280" width="60" height="40" as="geometry" />
        </mxCell>
        <mxCell id="pjmKmr7JDMU3EJoiVQ4d-14" value="1." style="text;html=1;align=center;verticalAlign=middle;resizable=0;points=[];autosize=1;strokeColor=none;fillColor=none;fontFamily=Comic Neue;fontSource=https%3A%2F%2Ffonts.googleapis.com%2Fcss%3Ffamily%3DComic%2BNeue;fontSize=16;" vertex="1" parent="1">
          <mxGeometry x="250" y="210" width="30" height="30" as="geometry" />
        </mxCell>
        <mxCell id="pjmKmr7JDMU3EJoiVQ4d-15" style="edgeStyle=orthogonalEdgeStyle;rounded=0;orthogonalLoop=1;jettySize=auto;html=1;entryX=0.446;entryY=-0.025;entryDx=0;entryDy=0;dashed=1;curved=1;entryPerimeter=0;exitX=0.663;exitY=-0.012;exitDx=0;exitDy=0;exitPerimeter=0;fontFamily=Comic Neue;fontSource=https%3A%2F%2Ffonts.googleapis.com%2Fcss%3Ffamily%3DComic%2BNeue;" edge="1" parent="1" source="pjmKmr7JDMU3EJoiVQ4d-3">
          <mxGeometry relative="1" as="geometry">
            <mxPoint x="430" y="400" as="sourcePoint" />
            <mxPoint x="513.52" y="278" as="targetPoint" />
            <Array as="points">
              <mxPoint x="370" y="240" />
              <mxPoint x="514" y="240" />
            </Array>
          </mxGeometry>
        </mxCell>
        <mxCell id="pjmKmr7JDMU3EJoiVQ4d-16" value="2." style="text;html=1;align=center;verticalAlign=middle;resizable=0;points=[];autosize=1;strokeColor=none;fillColor=none;fontFamily=Comic Neue;fontSource=https%3A%2F%2Ffonts.googleapis.com%2Fcss%3Ffamily%3DComic%2BNeue;fontSize=16;" vertex="1" parent="1">
          <mxGeometry x="425" y="210" width="30" height="30" as="geometry" />
        </mxCell>
        <mxCell id="pjmKmr7JDMU3EJoiVQ4d-17" value="3. &lt;br&gt;If not opened in &lt;br&gt;append mode" style="text;html=1;align=center;verticalAlign=middle;resizable=0;points=[];autosize=1;strokeColor=none;fillColor=none;fontFamily=Comic Neue;fontSource=https%3A%2F%2Ffonts.googleapis.com%2Fcss%3Ffamily%3DComic%2BNeue;fontSize=16;" vertex="1" parent="1">
          <mxGeometry x="560" y="180" width="130" height="70" as="geometry" />
        </mxCell>
        <mxCell id="pjmKmr7JDMU3EJoiVQ4d-20" value="6." style="text;html=1;align=center;verticalAlign=middle;resizable=0;points=[];autosize=1;strokeColor=none;fillColor=none;fontFamily=Comic Neue;fontSource=https%3A%2F%2Ffonts.googleapis.com%2Fcss%3Ffamily%3DComic%2BNeue;fontSize=16;" vertex="1" parent="1">
          <mxGeometry x="1090" y="230" width="30" height="30" as="geometry" />
        </mxCell>
        <mxCell id="pjmKmr7JDMU3EJoiVQ4d-21" value="WRITE FS CALL EXECUTION" style="text;html=1;align=center;verticalAlign=middle;resizable=0;points=[];autosize=1;strokeColor=none;fillColor=none;fontFamily=Comic Neue;fontSource=https%3A%2F%2Ffonts.googleapis.com%2Fcss%3Ffamily%3DComic%2BNeue;fontStyle=1;fontSize=22;" vertex="1" parent="1">
          <mxGeometry x="540" y="110" width="300" height="40" as="geometry" />
        </mxCell>
        <mxCell id="HOW8BzDDjYXzQglhczWa-4" style="edgeStyle=orthogonalEdgeStyle;rounded=0;orthogonalLoop=1;jettySize=auto;html=1;entryX=0.5;entryY=0;entryDx=0;entryDy=0;curved=1;dashed=1;" edge="1" parent="1" source="HOW8BzDDjYXzQglhczWa-2" target="HOW8BzDDjYXzQglhczWa-3">
          <mxGeometry relative="1" as="geometry">
            <Array as="points">
              <mxPoint x="540" y="250" />
              <mxPoint x="690" y="250" />
            </Array>
          </mxGeometry>
        </mxCell>
        <mxCell id="HOW8BzDDjYXzQglhczWa-9" style="edgeStyle=orthogonalEdgeStyle;rounded=0;orthogonalLoop=1;jettySize=auto;html=1;entryX=0.5;entryY=1;entryDx=0;entryDy=0;curved=1;dashed=1;" edge="1" parent="1" source="HOW8BzDDjYXzQglhczWa-2" target="HOW8BzDDjYXzQglhczWa-6">
          <mxGeometry relative="1" as="geometry">
            <Array as="points">
              <mxPoint x="510" y="420" />
              <mxPoint x="850" y="420" />
            </Array>
          </mxGeometry>
        </mxCell>
        <mxCell id="HOW8BzDDjYXzQglhczWa-2" value="&lt;font style=&quot;font-size: 21px;&quot;&gt;open()&lt;/font&gt;" style="ellipse;whiteSpace=wrap;html=1;fontFamily=Comic Neue;fontSource=https%3A%2F%2Ffonts.googleapis.com%2Fcss%3Ffamily%3DComic%2BNeue;fillColor=#66FFFF;strokeColor=#d6b656;" vertex="1" parent="1">
          <mxGeometry x="460" y="280" width="120" height="80" as="geometry" />
        </mxCell>
        <mxCell id="HOW8BzDDjYXzQglhczWa-7" style="edgeStyle=orthogonalEdgeStyle;rounded=0;orthogonalLoop=1;jettySize=auto;html=1;entryX=0.5;entryY=0;entryDx=0;entryDy=0;dashed=1;curved=1;" edge="1" parent="1" source="HOW8BzDDjYXzQglhczWa-3" target="HOW8BzDDjYXzQglhczWa-6">
          <mxGeometry relative="1" as="geometry">
            <Array as="points">
              <mxPoint x="720" y="240" />
              <mxPoint x="850" y="240" />
            </Array>
          </mxGeometry>
        </mxCell>
        <mxCell id="HOW8BzDDjYXzQglhczWa-3" value="&lt;font style=&quot;font-size: 21px;&quot;&gt;truncate()&lt;/font&gt;" style="ellipse;whiteSpace=wrap;html=1;fillColor=#f0a30a;fontColor=#000000;strokeColor=#BD7000;fontFamily=Comic Neue;fontSource=https%3A%2F%2Ffonts.googleapis.com%2Fcss%3Ffamily%3DComic%2BNeue;" vertex="1" parent="1">
          <mxGeometry x="630" y="280" width="120" height="80" as="geometry" />
        </mxCell>
        <mxCell id="HOW8BzDDjYXzQglhczWa-11" style="edgeStyle=orthogonalEdgeStyle;rounded=0;orthogonalLoop=1;jettySize=auto;html=1;entryX=0.5;entryY=0;entryDx=0;entryDy=0;curved=1;dashed=1;" edge="1" parent="1" source="HOW8BzDDjYXzQglhczWa-6" target="pjmKmr7JDMU3EJoiVQ4d-8">
          <mxGeometry relative="1" as="geometry">
            <Array as="points">
              <mxPoint x="880" y="250" />
              <mxPoint x="1010" y="250" />
            </Array>
          </mxGeometry>
        </mxCell>
        <mxCell id="HOW8BzDDjYXzQglhczWa-6" value="&lt;font style=&quot;font-size: 21px;&quot;&gt;write()&lt;/font&gt;" style="ellipse;whiteSpace=wrap;html=1;fillColor=#bac8d3;strokeColor=#23445d;fontFamily=Comic Neue;fontSource=https%3A%2F%2Ffonts.googleapis.com%2Fcss%3Ffamily%3DComic%2BNeue;" vertex="1" parent="1">
          <mxGeometry x="790" y="280" width="120" height="80" as="geometry" />
        </mxCell>
        <mxCell id="HOW8BzDDjYXzQglhczWa-8" value="4." style="text;html=1;align=center;verticalAlign=middle;resizable=0;points=[];autosize=1;strokeColor=none;fillColor=none;fontFamily=Comic Neue;fontSource=https%3A%2F%2Ffonts.googleapis.com%2Fcss%3Ffamily%3DComic%2BNeue;fontSize=16;" vertex="1" parent="1">
          <mxGeometry x="770" y="210" width="30" height="30" as="geometry" />
        </mxCell>
        <mxCell id="HOW8BzDDjYXzQglhczWa-10" value="4. &lt;br&gt;If opened in &lt;br&gt;append mode" style="text;html=1;align=center;verticalAlign=middle;resizable=0;points=[];autosize=1;strokeColor=none;fillColor=none;fontFamily=Comic Neue;fontSource=https%3A%2F%2Ffonts.googleapis.com%2Fcss%3Ffamily%3DComic%2BNeue;fontSize=16;" vertex="1" parent="1">
          <mxGeometry x="615" y="420" width="120" height="70" as="geometry" />
        </mxCell>
        <mxCell id="HOW8BzDDjYXzQglhczWa-12" value="5." style="text;html=1;align=center;verticalAlign=middle;resizable=0;points=[];autosize=1;strokeColor=none;fillColor=none;fontFamily=Comic Neue;fontSource=https%3A%2F%2Ffonts.googleapis.com%2Fcss%3Ffamily%3DComic%2BNeue;fontSize=16;" vertex="1" parent="1">
          <mxGeometry x="930" y="220" width="30" height="30" as="geometry" />
        </mxCell>
      </root>
    </mxGraphModel>
  </diagram>
  <diagram id="wiMek6pOWwmza4gLwojj" name="MKDIR">
    <mxGraphModel dx="970" dy="635" grid="1" gridSize="10" guides="1" tooltips="1" connect="1" arrows="1" fold="1" page="1" pageScale="1" pageWidth="850" pageHeight="1100" math="0" shadow="0">
      <root>
        <mxCell id="0" />
        <mxCell id="1" parent="0" />
        <mxCell id="s2bixWf2sUiJnSI3k8cL-1" style="edgeStyle=orthogonalEdgeStyle;rounded=0;orthogonalLoop=1;jettySize=auto;html=1;entryX=0.5;entryY=0;entryDx=0;entryDy=0;dashed=1;exitX=0.5;exitY=0;exitDx=0;exitDy=0;curved=1;fontFamily=Comic Neue;fontSource=https%3A%2F%2Ffonts.googleapis.com%2Fcss%3Ffamily%3DComic%2BNeue;" edge="1" parent="1" source="s2bixWf2sUiJnSI3k8cL-2" target="s2bixWf2sUiJnSI3k8cL-3">
          <mxGeometry relative="1" as="geometry">
            <Array as="points">
              <mxPoint x="170" y="240" />
              <mxPoint x="350" y="240" />
            </Array>
          </mxGeometry>
        </mxCell>
        <mxCell id="s2bixWf2sUiJnSI3k8cL-2" value="&lt;font style=&quot;font-size: 21px;&quot;&gt;getattr()&lt;/font&gt;" style="ellipse;whiteSpace=wrap;html=1;fontFamily=Comic Neue;fontSource=https%3A%2F%2Ffonts.googleapis.com%2Fcss%3Ffamily%3DComic%2BNeue;fillColor=#dae8fc;strokeColor=#6c8ebf;" vertex="1" parent="1">
          <mxGeometry x="110" y="280" width="120" height="80" as="geometry" />
        </mxCell>
        <mxCell id="s2bixWf2sUiJnSI3k8cL-3" value="&lt;font style=&quot;font-size: 21px;&quot;&gt;readdir()&lt;/font&gt;" style="ellipse;whiteSpace=wrap;html=1;fontFamily=Comic Neue;fontSource=https%3A%2F%2Ffonts.googleapis.com%2Fcss%3Ffamily%3DComic%2BNeue;fillColor=#d5e8d4;strokeColor=#82b366;" vertex="1" parent="1">
          <mxGeometry x="290" y="280" width="120" height="80" as="geometry" />
        </mxCell>
        <mxCell id="s2bixWf2sUiJnSI3k8cL-5" value="&lt;font style=&quot;font-size: 21px;&quot;&gt;mkdir()&lt;/font&gt;" style="ellipse;whiteSpace=wrap;html=1;fontFamily=Comic Neue;fontSource=https%3A%2F%2Ffonts.googleapis.com%2Fcss%3Ffamily%3DComic%2BNeue;fillColor=#ffff88;strokeColor=#36393d;" vertex="1" parent="1">
          <mxGeometry x="460" y="280" width="120" height="80" as="geometry" />
        </mxCell>
        <mxCell id="s2bixWf2sUiJnSI3k8cL-7" value="" style="endArrow=classic;html=1;rounded=0;fontFamily=Comic Neue;fontSource=https%3A%2F%2Ffonts.googleapis.com%2Fcss%3Ffamily%3DComic%2BNeue;" edge="1" parent="1">
          <mxGeometry width="50" height="50" relative="1" as="geometry">
            <mxPoint x="38" y="320" as="sourcePoint" />
            <mxPoint x="108" y="320" as="targetPoint" />
          </mxGeometry>
        </mxCell>
        <mxCell id="s2bixWf2sUiJnSI3k8cL-8" value="&lt;span style=&quot;color: rgb(0, 0, 0); font-size: 21px; font-style: normal; font-variant-ligatures: normal; font-variant-caps: normal; font-weight: 400; letter-spacing: normal; orphans: 2; text-align: center; text-indent: 0px; text-transform: none; widows: 2; word-spacing: 0px; -webkit-text-stroke-width: 0px; background-color: rgb(251, 251, 251); text-decoration-thickness: initial; text-decoration-style: initial; text-decoration-color: initial; float: none; display: inline !important;&quot;&gt;START&lt;/span&gt;" style="text;whiteSpace=wrap;html=1;fontFamily=Comic Neue;fontSource=https%3A%2F%2Ffonts.googleapis.com%2Fcss%3Ffamily%3DComic%2BNeue;" vertex="1" parent="1">
          <mxGeometry x="40" y="280" width="60" height="40" as="geometry" />
        </mxCell>
        <mxCell id="s2bixWf2sUiJnSI3k8cL-9" value="1." style="text;html=1;align=center;verticalAlign=middle;resizable=0;points=[];autosize=1;strokeColor=none;fillColor=none;fontFamily=Comic Neue;fontSource=https%3A%2F%2Ffonts.googleapis.com%2Fcss%3Ffamily%3DComic%2BNeue;fontSize=16;" vertex="1" parent="1">
          <mxGeometry x="250" y="210" width="30" height="30" as="geometry" />
        </mxCell>
        <mxCell id="s2bixWf2sUiJnSI3k8cL-10" style="edgeStyle=orthogonalEdgeStyle;rounded=0;orthogonalLoop=1;jettySize=auto;html=1;entryX=0.446;entryY=-0.025;entryDx=0;entryDy=0;dashed=1;curved=1;entryPerimeter=0;exitX=0.663;exitY=-0.012;exitDx=0;exitDy=0;exitPerimeter=0;fontFamily=Comic Neue;fontSource=https%3A%2F%2Ffonts.googleapis.com%2Fcss%3Ffamily%3DComic%2BNeue;" edge="1" parent="1" source="s2bixWf2sUiJnSI3k8cL-3" target="s2bixWf2sUiJnSI3k8cL-5">
          <mxGeometry relative="1" as="geometry">
            <mxPoint x="430" y="400" as="sourcePoint" />
            <mxPoint x="550" y="280" as="targetPoint" />
            <Array as="points">
              <mxPoint x="370" y="240" />
              <mxPoint x="514" y="240" />
            </Array>
          </mxGeometry>
        </mxCell>
        <mxCell id="s2bixWf2sUiJnSI3k8cL-11" value="2." style="text;html=1;align=center;verticalAlign=middle;resizable=0;points=[];autosize=1;strokeColor=none;fillColor=none;fontFamily=Comic Neue;fontSource=https%3A%2F%2Ffonts.googleapis.com%2Fcss%3Ffamily%3DComic%2BNeue;fontSize=16;" vertex="1" parent="1">
          <mxGeometry x="425" y="210" width="30" height="30" as="geometry" />
        </mxCell>
        <mxCell id="s2bixWf2sUiJnSI3k8cL-13" value="MKDIR FS CALL EXECUTION" style="text;html=1;align=center;verticalAlign=middle;resizable=0;points=[];autosize=1;strokeColor=none;fillColor=none;fontFamily=Comic Neue;fontSource=https%3A%2F%2Ffonts.googleapis.com%2Fcss%3Ffamily%3DComic%2BNeue;fontStyle=1;fontSize=22;" vertex="1" parent="1">
          <mxGeometry x="210" y="150" width="300" height="40" as="geometry" />
        </mxCell>
      </root>
    </mxGraphModel>
  </diagram>
  <diagram id="vsoABSg44oy5Ki2383a7" name="RMDIR">
    <mxGraphModel dx="970" dy="635" grid="1" gridSize="10" guides="1" tooltips="1" connect="1" arrows="1" fold="1" page="1" pageScale="1" pageWidth="850" pageHeight="1100" math="0" shadow="0">
      <root>
        <mxCell id="0" />
        <mxCell id="1" parent="0" />
        <mxCell id="2sges4CEJt-V5sivnJwE-1" style="edgeStyle=orthogonalEdgeStyle;rounded=0;orthogonalLoop=1;jettySize=auto;html=1;entryX=0.5;entryY=0;entryDx=0;entryDy=0;dashed=1;exitX=0.5;exitY=0;exitDx=0;exitDy=0;curved=1;fontFamily=Comic Neue;fontSource=https%3A%2F%2Ffonts.googleapis.com%2Fcss%3Ffamily%3DComic%2BNeue;" edge="1" parent="1" source="2sges4CEJt-V5sivnJwE-2" target="2sges4CEJt-V5sivnJwE-3">
          <mxGeometry relative="1" as="geometry">
            <Array as="points">
              <mxPoint x="170" y="240" />
              <mxPoint x="350" y="240" />
            </Array>
          </mxGeometry>
        </mxCell>
        <mxCell id="2sges4CEJt-V5sivnJwE-2" value="&lt;font style=&quot;font-size: 21px;&quot;&gt;getattr()&lt;/font&gt;" style="ellipse;whiteSpace=wrap;html=1;fontFamily=Comic Neue;fontSource=https%3A%2F%2Ffonts.googleapis.com%2Fcss%3Ffamily%3DComic%2BNeue;fillColor=#dae8fc;strokeColor=#6c8ebf;" vertex="1" parent="1">
          <mxGeometry x="110" y="280" width="120" height="80" as="geometry" />
        </mxCell>
        <mxCell id="2sges4CEJt-V5sivnJwE-3" value="&lt;font style=&quot;font-size: 21px;&quot;&gt;readdir()&lt;/font&gt;" style="ellipse;whiteSpace=wrap;html=1;fontFamily=Comic Neue;fontSource=https%3A%2F%2Ffonts.googleapis.com%2Fcss%3Ffamily%3DComic%2BNeue;fillColor=#d5e8d4;strokeColor=#82b366;" vertex="1" parent="1">
          <mxGeometry x="290" y="280" width="120" height="80" as="geometry" />
        </mxCell>
        <mxCell id="2sges4CEJt-V5sivnJwE-4" value="&lt;font style=&quot;font-size: 21px;&quot;&gt;rmdir()&lt;/font&gt;" style="ellipse;whiteSpace=wrap;html=1;fontFamily=Comic Neue;fontSource=https%3A%2F%2Ffonts.googleapis.com%2Fcss%3Ffamily%3DComic%2BNeue;fillColor=#e51400;strokeColor=#B20000;fontColor=#ffffff;" vertex="1" parent="1">
          <mxGeometry x="460" y="280" width="120" height="80" as="geometry" />
        </mxCell>
        <mxCell id="2sges4CEJt-V5sivnJwE-5" value="" style="endArrow=classic;html=1;rounded=0;fontFamily=Comic Neue;fontSource=https%3A%2F%2Ffonts.googleapis.com%2Fcss%3Ffamily%3DComic%2BNeue;" edge="1" parent="1">
          <mxGeometry width="50" height="50" relative="1" as="geometry">
            <mxPoint x="38" y="320" as="sourcePoint" />
            <mxPoint x="108" y="320" as="targetPoint" />
          </mxGeometry>
        </mxCell>
        <mxCell id="2sges4CEJt-V5sivnJwE-6" value="&lt;span style=&quot;color: rgb(0, 0, 0); font-size: 21px; font-style: normal; font-variant-ligatures: normal; font-variant-caps: normal; font-weight: 400; letter-spacing: normal; orphans: 2; text-align: center; text-indent: 0px; text-transform: none; widows: 2; word-spacing: 0px; -webkit-text-stroke-width: 0px; background-color: rgb(251, 251, 251); text-decoration-thickness: initial; text-decoration-style: initial; text-decoration-color: initial; float: none; display: inline !important;&quot;&gt;START&lt;/span&gt;" style="text;whiteSpace=wrap;html=1;fontFamily=Comic Neue;fontSource=https%3A%2F%2Ffonts.googleapis.com%2Fcss%3Ffamily%3DComic%2BNeue;" vertex="1" parent="1">
          <mxGeometry x="40" y="280" width="60" height="40" as="geometry" />
        </mxCell>
        <mxCell id="2sges4CEJt-V5sivnJwE-7" value="1." style="text;html=1;align=center;verticalAlign=middle;resizable=0;points=[];autosize=1;strokeColor=none;fillColor=none;fontFamily=Comic Neue;fontSource=https%3A%2F%2Ffonts.googleapis.com%2Fcss%3Ffamily%3DComic%2BNeue;fontSize=16;" vertex="1" parent="1">
          <mxGeometry x="250" y="210" width="30" height="30" as="geometry" />
        </mxCell>
        <mxCell id="2sges4CEJt-V5sivnJwE-8" style="edgeStyle=orthogonalEdgeStyle;rounded=0;orthogonalLoop=1;jettySize=auto;html=1;entryX=0.446;entryY=-0.025;entryDx=0;entryDy=0;dashed=1;curved=1;entryPerimeter=0;exitX=0.663;exitY=-0.012;exitDx=0;exitDy=0;exitPerimeter=0;fontFamily=Comic Neue;fontSource=https%3A%2F%2Ffonts.googleapis.com%2Fcss%3Ffamily%3DComic%2BNeue;" edge="1" parent="1" source="2sges4CEJt-V5sivnJwE-3" target="2sges4CEJt-V5sivnJwE-4">
          <mxGeometry relative="1" as="geometry">
            <mxPoint x="430" y="400" as="sourcePoint" />
            <mxPoint x="550" y="280" as="targetPoint" />
            <Array as="points">
              <mxPoint x="370" y="240" />
              <mxPoint x="514" y="240" />
            </Array>
          </mxGeometry>
        </mxCell>
        <mxCell id="2sges4CEJt-V5sivnJwE-9" value="2." style="text;html=1;align=center;verticalAlign=middle;resizable=0;points=[];autosize=1;strokeColor=none;fillColor=none;fontFamily=Comic Neue;fontSource=https%3A%2F%2Ffonts.googleapis.com%2Fcss%3Ffamily%3DComic%2BNeue;fontSize=16;" vertex="1" parent="1">
          <mxGeometry x="425" y="210" width="30" height="30" as="geometry" />
        </mxCell>
        <mxCell id="2sges4CEJt-V5sivnJwE-10" value="RMDIR FS CALL EXECUTION" style="text;html=1;align=center;verticalAlign=middle;resizable=0;points=[];autosize=1;strokeColor=none;fillColor=none;fontFamily=Comic Neue;fontSource=https%3A%2F%2Ffonts.googleapis.com%2Fcss%3Ffamily%3DComic%2BNeue;fontStyle=1;fontSize=22;" vertex="1" parent="1">
          <mxGeometry x="210" y="150" width="300" height="40" as="geometry" />
        </mxCell>
      </root>
    </mxGraphModel>
  </diagram>
  <diagram id="7t9U6Xtcwc4s_Pgfhrba" name="RENAME">
    <mxGraphModel dx="970" dy="635" grid="1" gridSize="10" guides="1" tooltips="1" connect="1" arrows="1" fold="1" page="1" pageScale="1" pageWidth="850" pageHeight="1100" math="0" shadow="0">
      <root>
        <mxCell id="0" />
        <mxCell id="1" parent="0" />
        <mxCell id="gtjZyoH7IqTz6MbU5E28-1" style="edgeStyle=orthogonalEdgeStyle;rounded=0;orthogonalLoop=1;jettySize=auto;html=1;entryX=0.5;entryY=0;entryDx=0;entryDy=0;dashed=1;exitX=0.5;exitY=0;exitDx=0;exitDy=0;curved=1;fontFamily=Comic Neue;fontSource=https%3A%2F%2Ffonts.googleapis.com%2Fcss%3Ffamily%3DComic%2BNeue;" edge="1" parent="1" source="gtjZyoH7IqTz6MbU5E28-2" target="gtjZyoH7IqTz6MbU5E28-3">
          <mxGeometry relative="1" as="geometry">
            <Array as="points">
              <mxPoint x="170" y="240" />
              <mxPoint x="350" y="240" />
            </Array>
          </mxGeometry>
        </mxCell>
        <mxCell id="gtjZyoH7IqTz6MbU5E28-2" value="&lt;font style=&quot;font-size: 21px;&quot;&gt;getattr()&lt;/font&gt;" style="ellipse;whiteSpace=wrap;html=1;fontFamily=Comic Neue;fontSource=https%3A%2F%2Ffonts.googleapis.com%2Fcss%3Ffamily%3DComic%2BNeue;fillColor=#dae8fc;strokeColor=#6c8ebf;" vertex="1" parent="1">
          <mxGeometry x="110" y="280" width="120" height="80" as="geometry" />
        </mxCell>
        <mxCell id="gtjZyoH7IqTz6MbU5E28-3" value="&lt;font style=&quot;font-size: 21px;&quot;&gt;readdir()&lt;/font&gt;" style="ellipse;whiteSpace=wrap;html=1;fontFamily=Comic Neue;fontSource=https%3A%2F%2Ffonts.googleapis.com%2Fcss%3Ffamily%3DComic%2BNeue;fillColor=#d5e8d4;strokeColor=#82b366;" vertex="1" parent="1">
          <mxGeometry x="290" y="280" width="120" height="80" as="geometry" />
        </mxCell>
        <mxCell id="gtjZyoH7IqTz6MbU5E28-12" style="edgeStyle=orthogonalEdgeStyle;rounded=0;orthogonalLoop=1;jettySize=auto;html=1;entryX=0.5;entryY=0;entryDx=0;entryDy=0;curved=1;dashed=1;" edge="1" parent="1" source="gtjZyoH7IqTz6MbU5E28-4" target="gtjZyoH7IqTz6MbU5E28-11">
          <mxGeometry relative="1" as="geometry">
            <Array as="points">
              <mxPoint x="560" y="250" />
              <mxPoint x="690" y="250" />
            </Array>
          </mxGeometry>
        </mxCell>
        <mxCell id="gtjZyoH7IqTz6MbU5E28-4" value="&lt;font style=&quot;font-size: 21px;&quot;&gt;rename()&lt;/font&gt;" style="ellipse;whiteSpace=wrap;html=1;fontFamily=Comic Neue;fontSource=https%3A%2F%2Ffonts.googleapis.com%2Fcss%3Ffamily%3DComic%2BNeue;fillColor=#9f64a0;strokeColor=#82b366;fontColor=default;" vertex="1" parent="1">
          <mxGeometry x="460" y="280" width="120" height="80" as="geometry" />
        </mxCell>
        <mxCell id="gtjZyoH7IqTz6MbU5E28-5" value="" style="endArrow=classic;html=1;rounded=0;fontFamily=Comic Neue;fontSource=https%3A%2F%2Ffonts.googleapis.com%2Fcss%3Ffamily%3DComic%2BNeue;" edge="1" parent="1">
          <mxGeometry width="50" height="50" relative="1" as="geometry">
            <mxPoint x="38" y="320" as="sourcePoint" />
            <mxPoint x="108" y="320" as="targetPoint" />
          </mxGeometry>
        </mxCell>
        <mxCell id="gtjZyoH7IqTz6MbU5E28-6" value="&lt;span style=&quot;color: rgb(0, 0, 0); font-size: 21px; font-style: normal; font-variant-ligatures: normal; font-variant-caps: normal; font-weight: 400; letter-spacing: normal; orphans: 2; text-align: center; text-indent: 0px; text-transform: none; widows: 2; word-spacing: 0px; -webkit-text-stroke-width: 0px; background-color: rgb(251, 251, 251); text-decoration-thickness: initial; text-decoration-style: initial; text-decoration-color: initial; float: none; display: inline !important;&quot;&gt;START&lt;/span&gt;" style="text;whiteSpace=wrap;html=1;fontFamily=Comic Neue;fontSource=https%3A%2F%2Ffonts.googleapis.com%2Fcss%3Ffamily%3DComic%2BNeue;" vertex="1" parent="1">
          <mxGeometry x="40" y="280" width="60" height="40" as="geometry" />
        </mxCell>
        <mxCell id="gtjZyoH7IqTz6MbU5E28-7" value="1." style="text;html=1;align=center;verticalAlign=middle;resizable=0;points=[];autosize=1;strokeColor=none;fillColor=none;fontFamily=Comic Neue;fontSource=https%3A%2F%2Ffonts.googleapis.com%2Fcss%3Ffamily%3DComic%2BNeue;fontSize=16;" vertex="1" parent="1">
          <mxGeometry x="250" y="210" width="30" height="30" as="geometry" />
        </mxCell>
        <mxCell id="gtjZyoH7IqTz6MbU5E28-8" style="edgeStyle=orthogonalEdgeStyle;rounded=0;orthogonalLoop=1;jettySize=auto;html=1;entryX=0.446;entryY=-0.025;entryDx=0;entryDy=0;dashed=1;curved=1;entryPerimeter=0;exitX=0.663;exitY=-0.012;exitDx=0;exitDy=0;exitPerimeter=0;fontFamily=Comic Neue;fontSource=https%3A%2F%2Ffonts.googleapis.com%2Fcss%3Ffamily%3DComic%2BNeue;" edge="1" parent="1" source="gtjZyoH7IqTz6MbU5E28-3" target="gtjZyoH7IqTz6MbU5E28-4">
          <mxGeometry relative="1" as="geometry">
            <mxPoint x="430" y="400" as="sourcePoint" />
            <mxPoint x="550" y="280" as="targetPoint" />
            <Array as="points">
              <mxPoint x="370" y="240" />
              <mxPoint x="514" y="240" />
            </Array>
          </mxGeometry>
        </mxCell>
        <mxCell id="gtjZyoH7IqTz6MbU5E28-9" value="2." style="text;html=1;align=center;verticalAlign=middle;resizable=0;points=[];autosize=1;strokeColor=none;fillColor=none;fontFamily=Comic Neue;fontSource=https%3A%2F%2Ffonts.googleapis.com%2Fcss%3Ffamily%3DComic%2BNeue;fontSize=16;" vertex="1" parent="1">
          <mxGeometry x="425" y="210" width="30" height="30" as="geometry" />
        </mxCell>
        <mxCell id="gtjZyoH7IqTz6MbU5E28-10" value="RENAME FS CALL EXECUTION" style="text;html=1;align=center;verticalAlign=middle;resizable=0;points=[];autosize=1;strokeColor=none;fillColor=none;fontFamily=Comic Neue;fontSource=https%3A%2F%2Ffonts.googleapis.com%2Fcss%3Ffamily%3DComic%2BNeue;fontStyle=1;fontSize=22;" vertex="1" parent="1">
          <mxGeometry x="260" y="150" width="320" height="40" as="geometry" />
        </mxCell>
        <mxCell id="gtjZyoH7IqTz6MbU5E28-11" value="&lt;font style=&quot;font-size: 21px;&quot;&gt;readdir()&lt;/font&gt;" style="ellipse;whiteSpace=wrap;html=1;fontFamily=Comic Neue;fontSource=https%3A%2F%2Ffonts.googleapis.com%2Fcss%3Ffamily%3DComic%2BNeue;fillColor=#d5e8d4;strokeColor=#82b366;" vertex="1" parent="1">
          <mxGeometry x="630" y="280" width="120" height="80" as="geometry" />
        </mxCell>
        <mxCell id="gtjZyoH7IqTz6MbU5E28-13" value="3." style="text;html=1;align=center;verticalAlign=middle;resizable=0;points=[];autosize=1;strokeColor=none;fillColor=none;fontFamily=Comic Neue;fontSource=https%3A%2F%2Ffonts.googleapis.com%2Fcss%3Ffamily%3DComic%2BNeue;fontSize=16;" vertex="1" parent="1">
          <mxGeometry x="610" y="220" width="30" height="30" as="geometry" />
        </mxCell>
      </root>
    </mxGraphModel>
  </diagram>
</mxfile>
